<?xml version="1.0" encoding="UTF-8" standalone="no"?><svg xmlns="http://www.w3.org/2000/svg" xmlns:xlink="http://www.w3.org/1999/xlink" contentScriptType="application/ecmascript" contentStyleType="text/css" height="742px" preserveAspectRatio="none" style="width:745px;height:742px;" version="1.1" viewBox="0 0 745 742" width="745px" zoomAndPan="magnify"><defs><filter height="300%" id="f1nu45cbpld7nw" width="300%" x="-1" y="-1"><feGaussianBlur result="blurOut" stdDeviation="2.0"/><feColorMatrix in="blurOut" result="blurOut2" type="matrix" values="0 0 0 0 0 0 0 0 0 0 0 0 0 0 0 0 0 0 .4 0"/><feOffset dx="4.0" dy="4.0" in="blurOut2" result="blurOut3"/><feBlend in="SourceGraphic" in2="blurOut3" mode="normal"/></filter></defs><g><!--cluster Visual Studio--><polygon fill="#FFFFFF" filter="url(#f1nu45cbpld7nw)" points="22,24,130,24,137,46.2969,654,46.2969,654,576,22,576,22,24" style="stroke: #000000; stroke-width: 1.5;"/><line style="stroke: #000000; stroke-width: 1.5;" x1="22" x2="137" y1="46.2969" y2="46.2969"/><text fill="#000000" font-family="sans-serif" font-size="14" font-weight="bold" lengthAdjust="spacingAndGlyphs" textLength="102" x="26" y="38.9951">Visual Studio</text><!--cluster VCRuntimePackage--><polygon fill="#FFFFFF" filter="url(#f1nu45cbpld7nw)" points="54,178,146,178,153,200.2969,622,200.2969,622,544,54,544,54,178" style="stroke: #000000; stroke-width: 1.5;"/><line style="stroke: #000000; stroke-width: 1.5;" x1="54" x2="153" y1="200.2969" y2="200.2969"/><text fill="#000000" font-family="sans-serif" font-size="14" font-weight="bold" lengthAdjust="spacingAndGlyphs" textLength="86" x="58" y="192.9951">VCRuntime</text><!--cluster Windows SDK--><polygon fill="#FFFFFF" filter="url(#f1nu45cbpld7nw)" points="91,600,206,600,213,622.2969,633,622.2969,633,730,91,730,91,600" style="stroke: #000000; stroke-width: 1.5;"/><line style="stroke: #000000; stroke-width: 1.5;" x1="91" x2="213" y1="622.2969" y2="622.2969"/><text fill="#000000" font-family="sans-serif" font-size="14" font-weight="bold" lengthAdjust="spacingAndGlyphs" textLength="109" x="95" y="614.9951">Windows SDK</text><!--entity STL--><rect fill="#FEFECE" filter="url(#f1nu45cbpld7nw)" height="95.1875" style="stroke: #A80036; stroke-width: 1.5;" width="544" x="66" y="59"/><rect fill="#FEFECE" height="10" style="stroke: #A80036; stroke-width: 1.5;" width="15" x="590" y="64"/><rect fill="#FEFECE" height="2" style="stroke: #A80036; stroke-width: 1.5;" width="4" x="588" y="66"/><rect fill="#FEFECE" height="2" style="stroke: #A80036; stroke-width: 1.5;" width="4" x="588" y="70"/><text fill="#000000" font-family="sans-serif" font-size="14" font-weight="bold" lengthAdjust="spacingAndGlyphs" textLength="29" x="81" y="91.9951">STL</text><text fill="#000000" font-family="sans-serif" font-size="14" lengthAdjust="spacingAndGlyphs" textLength="487" x="81" y="108.292">This repo; provides C++ standard library headers, separately compiled</text><text fill="#000000" font-family="sans-serif" font-size="14" lengthAdjust="spacingAndGlyphs" textLength="504" x="81" y="124.5889">implementations of most of the iostreams functionality, and a few runtime</text><text fill="#000000" font-family="sans-serif" font-size="14" lengthAdjust="spacingAndGlyphs" textLength="374" x="81" y="140.8857">support components that live in std like exception_ptr.</text><!--entity VCStartup--><rect fill="#FEFECE" filter="url(#f1nu45cbpld7nw)" height="127.7813" style="stroke: #A80036; stroke-width: 1.5;" width="479" x="102.5" y="221"/><rect fill="#FEFECE" height="10" style="stroke: #A80036; stroke-width: 1.5;" width="15" x="561.5" y="226"/><rect fill="#FEFECE" height="2" style="stroke: #A80036; stroke-width: 1.5;" width="4" x="559.5" y="228"/><rect fill="#FEFECE" height="2" style="stroke: #A80036; stroke-width: 1.5;" width="4" x="559.5" y="232"/><text fill="#000000" font-family="sans-serif" font-size="14" font-weight="bold" lengthAdjust="spacingAndGlyphs" textLength="80" x="117.5" y="253.9951">VCStartup</text><text fill="#000000" font-family="sans-serif" font-size="14" lengthAdjust="spacingAndGlyphs" textLength="433" x="117.5" y="270.292">Provides compiler support mechanisms that live in each binary;</text><text fill="#000000" font-family="sans-serif" font-size="14" lengthAdjust="spacingAndGlyphs" textLength="439" x="117.5" y="286.5889">such as the entry point, the /GS cookie, and to call constructors</text><text fill="#000000" font-family="sans-serif" font-size="14" lengthAdjust="spacingAndGlyphs" textLength="245" x="117.5" y="302.8857">and destructors for global variables.</text><text fill="#000000" font-family="sans-serif" font-size="14" lengthAdjust="spacingAndGlyphs" textLength="0" x="121.5" y="319.1826"/><text fill="#000000" font-family="sans-serif" font-size="14" lengthAdjust="spacingAndGlyphs" textLength="361" x="117.5" y="335.4795">Merged into static and import libraries of VCRuntime.</text><!--entity VCRuntime--><rect fill="#FEFECE" filter="url(#f1nu45cbpld7nw)" height="111.4844" style="stroke: #A80036; stroke-width: 1.5;" width="511" x="86.5" y="409"/><rect fill="#FEFECE" height="10" style="stroke: #A80036; stroke-width: 1.5;" width="15" x="577.5" y="414"/><rect fill="#FEFECE" height="2" style="stroke: #A80036; stroke-width: 1.5;" width="4" x="575.5" y="416"/><rect fill="#FEFECE" height="2" style="stroke: #A80036; stroke-width: 1.5;" width="4" x="575.5" y="420"/><text fill="#000000" font-family="sans-serif" font-size="14" font-weight="bold" lengthAdjust="spacingAndGlyphs" textLength="86" x="101.5" y="441.9951">VCRuntime</text><text fill="#000000" font-family="sans-serif" font-size="14" lengthAdjust="spacingAndGlyphs" textLength="471" x="101.5" y="458.292">Provides compiler support mechanisms that can be shared between</text><text fill="#000000" font-family="sans-serif" font-size="14" lengthAdjust="spacingAndGlyphs" textLength="417" x="101.5" y="474.5889">binaries; code that the compiler calls on your behalf, such as</text><text fill="#000000" font-family="sans-serif" font-size="14" lengthAdjust="spacingAndGlyphs" textLength="382" x="101.5" y="490.8857">the C++ exception handling runtime, string.h intrinsics,</text><text fill="#000000" font-family="sans-serif" font-size="14" lengthAdjust="spacingAndGlyphs" textLength="385" x="101.5" y="507.1826">math intrinsics, and declarations for CPU vendor specific</text><!--entity UCRT--><rect fill="#FEFECE" filter="url(#f1nu45cbpld7nw)" height="78.8906" style="stroke: #A80036; stroke-width: 1.5;" width="509" x="107.5" y="635"/><rect fill="#FEFECE" height="10" style="stroke: #A80036; stroke-width: 1.5;" width="15" x="596.5" y="640"/><rect fill="#FEFECE" height="2" style="stroke: #A80036; stroke-width: 1.5;" width="4" x="594.5" y="642"/><rect fill="#FEFECE" height="2" style="stroke: #A80036; stroke-width: 1.5;" width="4" x="594.5" y="646"/><text fill="#000000" font-family="sans-serif" font-size="14" font-weight="bold" lengthAdjust="spacingAndGlyphs" textLength="109" x="122.5" y="667.9951">Universal CRT</text><text fill="#000000" font-family="sans-serif" font-size="14" lengthAdjust="spacingAndGlyphs" textLength="461" x="122.5" y="684.292">Windows component that provides C library support, such as printf,</text><text fill="#000000" font-family="sans-serif" font-size="14" lengthAdjust="spacingAndGlyphs" textLength="469" x="122.5" y="700.5889">C locales, and some POSIX-like shims for the Windows API, like _stat.</text><!--link VCStartup to VCRuntime--><path d="M342,349.08 C342,366.779 342,385.969 342,403.485 " fill="none" id="VCStartup-&gt;VCRuntime" style="stroke: #A80036; stroke-width: 1.0;"/><polygon fill="#A80036" points="342,408.864,346,399.864,342,403.864,338,399.864,342,408.864" style="stroke: #A80036; stroke-width: 1.0;"/><!--link STL to UCRT--><path d="M605.441,154.192 C608.873,156.664 611.752,159.264 614,162 C733.085,306.899 722.176,430.784 614,584 C599.565,604.445 580.036,620.248 558.197,632.458 " fill="none" id="STL-&gt;UCRT" style="stroke: #A80036; stroke-width: 1.0;"/><polygon fill="#A80036" points="553.799,634.852,563.616,634.0606,558.1901,632.4607,559.79,627.0348,553.799,634.852" style="stroke: #A80036; stroke-width: 1.0;"/><!--link STL to VCRuntimePackage--><path d="M79.2368,154.086 C75.53,156.592 72.4203,159.228 70,162 C52.4086,182.145 50.1958,212.014 52.4847,237.1549 C52.7708,240.2975 53.1272,243.3662 53.5328,246.3328 C53.6342,247.0745 53.7386,247.8098 53.8458,248.5382 C53.8726,248.7203 53.8996,248.902 53.9267,249.0833 " fill="none" id="STL-&gt;VCRuntimePackage" style="stroke: #A80036; stroke-width: 1.0;"/><polygon fill="#A80036" points="53.9267,249.0833,56.5501,239.5902,53.1864,244.1384,48.6383,240.7747,53.9267,249.0833" style="stroke: #A80036; stroke-width: 1.0;"/><!--link VCRuntime to UCRT--><path d="M347.255,520.15 C350.551,554.425 354.741,598.011 357.812,629.948 " fill="none" id="VCRuntime-&gt;UCRT" style="stroke: #A80036; stroke-width: 1.0;"/><polygon fill="#A80036" points="358.295,634.971,361.4152,625.6295,357.8164,629.994,353.452,626.3952,358.295,634.971" style="stroke: #A80036; stroke-width: 1.0;"/></g></svg>
